<svg width="18" height="18" viewBox="0 0 18 18" fill="none" xmlns="http://www.w3.org/2000/svg">
<path d="M14.6234 4.12498L14.1587 11.6437C14.0399 13.5647 13.9805 14.5252 13.4991 15.2158C13.2609 15.5572 12.9545 15.8453 12.599 16.0618C11.88 16.4998 10.9177 16.4998 8.99303 16.4998C7.06587 16.4998 6.10226 16.4998 5.38283 16.061C5.02715 15.8441 4.72055 15.5555 4.48257 15.2135C4.00122 14.5218 3.94315 13.5599 3.82702 11.6363L3.37357 4.12498" stroke="#1F2A37" stroke-width="1.10332" stroke-linecap="round"/>
<path d="M2.24938 4.12499H15.7492M12.041 4.12499L11.5291 3.0688C11.189 2.36721 11.0189 2.01641 10.7256 1.79762C10.6605 1.74909 10.5916 1.70592 10.5195 1.66854C10.1947 1.50002 9.80487 1.50002 9.02518 1.50002C8.22591 1.50002 7.82632 1.50002 7.49608 1.67561C7.42289 1.71453 7.35306 1.75944 7.28729 1.80989C6.99055 2.03754 6.8248 2.40117 6.49329 3.12845L6.03903 4.12499" stroke="#1F2A37" stroke-width="1.10332" stroke-linecap="round"/>
<path d="M7.12452 12.3748V7.87488" stroke="#1F2A37" stroke-width="1.10332" stroke-linecap="round"/>
<path d="M10.8745 12.3748V7.87488" stroke="#1F2A37" stroke-width="1.10332" stroke-linecap="round"/>
</svg>
